<svg width="66" height="68" viewBox="0 0 66 68" fill="none" xmlns="http://www.w3.org/2000/svg">
<g clip-path="url(#clip0_101_154)">
<path d="M19.3515 16.1146L6.96483 7.60256C6.46158 7.09447 5.81913 6.74824 5.11899 6.60819C4.41886 6.46813 3.69277 6.54041 3.03381 6.81601C2.37485 7.0916 1.81264 7.55788 1.41891 8.15543C1.02519 8.75297 0.817957 9.45486 0.823345 10.1712L1.00692 47.0305C1.01326 48.5414 1.61102 49.9893 2.67142 51.062L18.0314 66.4736C18.1147 66.5583 18.2138 66.6255 18.3232 66.6713C18.4326 66.7172 18.55 66.7408 18.6685 66.7408C18.787 66.7408 18.9044 66.7172 19.0138 66.6713C19.1232 66.6255 19.2222 66.5583 19.3055 66.4736C19.3918 66.3904 19.4599 66.2903 19.5054 66.1792C19.5508 66.0681 19.5729 65.9486 19.5698 65.8285L19.3515 16.1146Z" fill="#949DCE"/>
<path d="M0.844784 18.6339L0.766673 3.65949C0.763736 3.18195 0.85148 2.70851 1.02469 2.26615C1.19789 1.82379 1.45316 1.4213 1.77613 1.08148C2.09911 0.741651 2.4834 0.471121 2.90698 0.285567C3.33055 0.100012 3.78526 0.00303201 4.24494 0L44.8678 0.208379C46.3316 0.217856 47.7331 0.825153 48.7695 1.89916L63.7076 17.4295C63.8696 17.5987 63.9607 17.8278 63.9607 18.0665C63.9607 18.3052 63.8696 18.5339 63.7076 18.7032C63.5409 18.8645 63.3222 18.9556 63.0944 18.9582L0.844784 18.6339Z" fill="#647DFF"/>
<path d="M19.3428 18.6137L0.894824 26.5614L0.860352 18.5215L19.3428 18.6137Z" fill="#6979CD"/>
<path d="M46.814 52.2796L59.3215 60.5305C59.8323 61.0494 60.4836 61.4023 61.1924 61.5443C61.9012 61.6863 62.6353 61.6109 63.3018 61.3279C63.9684 61.0449 64.5371 60.5671 64.9357 59.955C65.3343 59.3428 65.5447 58.6241 65.5402 57.8902L65.3546 20.1719C65.3452 18.6242 64.7367 17.1423 63.6607 16.0465L48.1366 0.263595C47.9636 0.0943354 47.372 0 47.372 0C47.372 0 47.0218 0.0943354 46.8489 0.263595C46.7639 0.350391 46.6964 0.453351 46.6506 0.566615C46.6048 0.679878 46.5816 0.801291 46.582 0.923734L46.814 52.2796Z" fill="#A5AEDF"/>
<path d="M65.4607 49.2997L65.5405 64.2765C65.5436 65.2414 65.169 66.1683 64.4987 66.8538C63.8284 67.5394 62.9172 67.9277 61.9647 67.9338L20.3215 67.714C18.8268 67.7045 17.3954 67.1021 16.3342 66.0358L1.02489 50.5034C0.943017 50.4207 0.878139 50.3223 0.833822 50.2141C0.789506 50.1059 0.766602 49.9896 0.766602 49.8725C0.766602 49.7553 0.789506 49.6394 0.833822 49.5311C0.878139 49.4229 0.943017 49.3245 1.02489 49.2418C1.19128 49.0722 1.41732 48.9765 1.6533 48.9756L65.4607 49.2997Z" fill="#5C73EB"/>
<path d="M46.582 48.8848L65.5049 41.0762L65.5403 48.9754L46.582 48.8848Z" fill="#6070C0"/>
</g>
<defs>
<clipPath id="clip0_101_154">
<rect width="64.7739" height="67.9336" fill="white" transform="translate(0.766602)"/>
</clipPath>
</defs>
</svg>
